<svg width="1481" height="753" viewBox="0 0 1481 753" fill="none" xmlns="http://www.w3.org/2000/svg">
<g clip-path="url(#clip0_2074_2504)">
<rect width="1481" height="753" fill="url(#paint0_linear_2074_2504)"/>
<g opacity="0.8" clip-path="url(#clip1_2074_2504)">
<rect width="894.602" height="2236.51" transform="matrix(4.37114e-08 1 1 -4.37114e-08 -615 -135)" fill="url(#paint1_linear_2074_2504)"/>
<g filter="url(#filter0_f_2074_2504)">
<path d="M-837.453 -142.158C-858.083 -138.569 -974.779 -158.555 -883.912 -59.9201C-820.004 9.44931 -515.235 94.3831 -394.206 274.872C-272.561 456.279 -423.287 721.772 -165.282 921.981C111.15 1136.49 884.905 1109.76 968.418 1091.72L1339.66 1011.56C1357.9 1009.74 1374.54 1007.87 1389.33 1006.37C1412.96 1003.97 1431.86 1002.5 1445.13 1003.63L1445.21 1003.63L1787.87 929.641L1787.79 928.537C1726.06 923.747 1657.94 918.216 1585.57 911.563C1718.75 918.555 1813.9 909.153 1854.68 900.348L2236.24 858.24C2147.65 846.807 2040.13 830.767 1925.21 812.176C1755.12 727.292 1534.32 580.877 1286.3 465.587C1118.81 387.73 949.414 260.235 961.171 132.943C972.928 5.65034 1108.87 -83.483 1079.11 -221.303C1060.07 -309.478 796.254 -396.737 694.79 -439.803L447.66 -386.439L500.035 -383.454C647.191 -354.586 877.598 -264.391 924.267 -161.876C992.135 -12.7917 802.578 155.117 856.997 311.38C905.175 449.722 1240.86 613.71 1494.31 736.796C1284.62 697.407 1096.67 657.84 998.997 630.288C740.663 557.419 568.692 445.109 563.965 342.168C558.605 225.44 696.193 70.6056 660.229 -46.3821C625.919 -157.986 301.892 -351.063 233.718 -336.342L34.3089 -293.283C204.316 -241.193 552.347 -111.455 584.413 -9.2193C624.495 118.575 488.652 201.189 474.629 349.763C459.23 512.929 554.794 605.351 753.112 697.677C989.495 807.725 1210.04 864.568 1392.05 891.816C1083.07 856.811 735.53 799.133 479.956 695.111C422.742 671.824 343.022 642.962 280.095 588.228C217.207 533.528 171.082 452.975 181.12 326.239C186.145 262.789 191.143 208.978 193.071 162.517C194.999 116.054 193.86 76.8934 186.596 42.7349C179.329 8.56458 165.934 -20.5992 143.361 -47.0672C120.795 -73.5278 89.0776 -97.271 45.2017 -120.637C-95.1799 -195.396 -255.299 -208.781 -287.531 -215.216L-287.64 -215.237L-287.748 -215.216L-635.071 -146.714L-635.062 -145.616C-558.001 -131.705 -408.518 -110.459 -268.581 -76.7173C-198.615 -59.847 -131.062 -39.859 -76.1652 -16.1135C-21.2424 7.64344 20.9042 35.1177 40.1916 66.8995C88.547 146.58 79.3465 232.184 78.2355 327.533C77.1249 422.848 84.1332 527.708 165.147 645.523C177.552 663.562 197.76 682.18 224.005 701.017C250.256 719.858 282.578 738.94 319.239 757.898C392.562 795.813 483.284 833.255 577.61 867.311C762.545 934.081 961.402 987.858 1070.29 1006.69C737.677 1002.95 286.516 973.318 20.5868 758.391C-134.221 633.274 -81.3137 426.924 -264.274 190.936C-403.001 12.0027 -690.66 -58.2196 -811.968 -87.8328L-813.306 -88.1602C-880.372 -104.533 -864.613 -126.181 -837.442 -142.163L-786.88 -164.04C-786.928 -164.025 -815.804 -154.891 -837.442 -142.163L-837.453 -142.158Z" fill="url(#paint2_linear_2074_2504)" fill-opacity="0.9"/>
</g>
<path d="M-299.158 -216.014C-290.811 -230.927 -290.393 -235.507 -286.345 -231.179C-159.828 -365.466 41.629 -146.709 279.776 -146.709C463.193 -146.709 1128.93 15.7713 1445.34 339.962C1717.94 619.256 1788.19 974.483 1733.27 1200.88C1426.61 1242.72 1113.7 1484.34 1226.7 1139.27C1445.34 471.641 750.695 187.349 363.691 74.2953C-214.963 -94.7444 -272.35 -216.216 -286.345 -231.179C-290.706 -226.551 -294.977 -221.504 -299.158 -216.014Z" fill="url(#paint3_linear_2074_2504)"/>
<path d="M796.73 874.894C790.55 885.933 790.24 889.323 787.244 886.12C693.581 985.518 544.44 823.595 368.135 823.595C232.348 823.595 -260.508 703.328 -494.753 463.363C-696.557 256.631 -748.566 -6.30642 -707.91 -173.883C-480.884 -204.852 -249.231 -383.7 -332.89 -128.284C-494.753 365.895 19.5065 576.327 306.012 660.009C734.399 785.131 776.883 875.044 787.244 886.12C790.472 882.694 793.634 878.958 796.73 874.894Z" fill="url(#paint4_linear_2074_2504)"/>
<g filter="url(#filter1_f_2074_2504)">
<path d="M-347.254 -219.59C-363.317 -220.24 -447.641 -254.144 -395.439 -165.409C-358.726 -103.002 -143.8 10.111 -82.2285 165.153C-20.344 320.985 -176.461 495.779 -15.3027 687.812C157.366 893.56 742.293 998.874 807.88 998.874L1098.31 998.874C1112.73 1000.52 1125.89 1001.85 1137.54 1003.15C1155.66 1005.18 1170.07 1007.14 1179.82 1010.13L1179.9 1010.16L1449.03 1010.16L1449.19 1009.06C1435.38 1004.94 1421.15 1000.67 1406.53 996.259C1451.1 998.877 1484.32 998.874 1502.41 998.872L1503.91 998.872L1797.04 1029.1C1724.82 1003.47 1643.74 971.092 1561 935.948C1448.87 844.336 1310.36 703.518 1147.86 580.549C1034.8 494.989 928.346 371.875 957.793 278.265C987.24 184.654 1103.69 139.799 1103.69 31.5615C1103.69 -37.6865 919.868 -145.909 850.712 -194.664L656.628 -194.664L695.444 -183.938C801.187 -138.432 959.462 -33.4213 977.87 51.0644C1004.64 173.928 835.197 269.207 850.712 395.278C862.977 494.934 1043.91 647.065 1203.71 773.49C1124.18 735.159 1055.89 700.754 1008.7 675.732C826.666 579.196 761.033 533.714 744.796 407.911C733.314 318.947 775.191 182.819 767.16 89.2089C759.499 -0.0934453 541.517 -191.737 487.977 -191.737C454.863 -191.737 227.254 -178.883 109.792 -173.048C94.3986 -178.912 82.9667 -182.955 77.2773 -185.426L77.1758 -185.47L77.0645 -185.472L-194.653 -190.347L-194.876 -189.271C-139.3 -166.345 -30.584 -126.186 68.9482 -78.1953C118.712 -54.2014 166.154 -28.261 203.49 -1.55471C240.85 25.1684 267.994 52.5932 277.303 79.5254C300.661 147.106 279.902 209.802 263.614 281.187C247.335 352.539 235.598 432.389 277.314 533.956C283.707 549.522 295.865 566.779 312.511 585.171C329.162 603.568 350.327 623.128 374.768 643.296C423.649 683.632 485.662 726.429 550.925 767.269C678.48 847.089 818.514 919.463 897.312 951.396C648.425 894.672 315.218 799.323 150.672 595.177C54.7824 476.21 127.917 329.945 28.8672 123.224C-46.2354 -33.5191 -250.706 -132.821 -336.933 -174.697L-337.884 -175.159C-385.554 -198.311 -370.222 -212.002 -347.244 -219.592L-305.76 -227.815C-305.76 -227.815 -328.93 -225.641 -347.244 -219.592L-347.254 -219.59ZM321.948 -51.543C437.759 -5.48601 547.569 40.1784 576.499 71.3173C649.744 150.154 592.174 252.913 557.579 362.125C526.389 460.587 507.388 573.177 575.639 666.448C551.234 651.961 527.849 637.149 505.692 622.017C466.527 595.268 411.407 560.707 373.073 509.462C334.771 458.258 313.222 390.384 341.276 296.953C355.327 250.16 367.798 210.588 376.773 176.034C385.75 141.479 391.242 111.898 391.326 85.0732C391.41 58.2365 386.08 34.1611 373.42 10.622C362.314 -10.028 345.577 -30.2436 321.948 -51.543Z" fill="url(#paint5_linear_2074_2504)" fill-opacity="0.8"/>
</g>
<path d="M1349.77 467.476C1399.14 590.69 1817.75 777.141 1948.7 823.892L1634.42 833.452C1607.04 823.105 1208.69 819.5 1078.03 766.05C928.142 704.73 832.514 481.533 961.177 295.527C1165.01 0.852389 806.858 -8.0789 665.958 -36.5943C442.897 -81.7377 293.022 -183.401 -54.2306 -225.985L133.697 -477.593L293.022 -485.302C339.068 -473.6 470.086 -485.286 616.381 -435.437C799.25 -373.126 1368.22 -247.646 1442.03 -20.641C1520.46 220.616 1288.05 313.459 1349.77 467.476Z" fill="url(#paint6_linear_2074_2504)" fill-opacity="0.8"/>
<path d="M654.776 680.765C820.284 780.07 884.377 758.314 1001.84 800.25L719.928 808.825C695.373 799.544 535.464 871.288 418.266 823.343C283.812 768.339 125.284 638.272 125.283 416.299C125.283 94.9014 121.357 -46.326 32.2717 -88.0465C-152.602 -174.627 -221.005 -168.794 -320.31 -218.447L-495.347 -374.103L-483.309 -374.103C-442.005 -363.605 -324.482 -374.088 -193.255 -329.373C-29.2204 -273.48 451.081 -169.038 442.029 61.412C428.33 410.148 527.152 604.191 654.776 680.765Z" fill="url(#paint7_linear_2074_2504)" fill-opacity="0.8"/>
</g>
<rect x="-20" width="1617" height="810" fill="#07031A" fill-opacity="0.43"/>
</g>
<defs>
<filter id="filter0_f_2074_2504" x="-1023.22" y="-544.918" width="3364.57" height="1753.59" filterUnits="userSpaceOnUse" color-interpolation-filters="sRGB">
<feFlood flood-opacity="0" result="BackgroundImageFix"/>
<feBlend mode="normal" in="SourceGraphic" in2="BackgroundImageFix" result="shape"/>
<feGaussianBlur stdDeviation="52.5579" result="effect1_foregroundBlur_2074_2504"/>
</filter>
<filter id="filter1_f_2074_2504" x="-416.757" y="-232.288" width="2218.27" height="1265.86" filterUnits="userSpaceOnUse" color-interpolation-filters="sRGB">
<feFlood flood-opacity="0" result="BackgroundImageFix"/>
<feBlend mode="normal" in="SourceGraphic" in2="BackgroundImageFix" result="shape"/>
<feGaussianBlur stdDeviation="2.23651" result="effect1_foregroundBlur_2074_2504"/>
</filter>
<linearGradient id="paint0_linear_2074_2504" x1="-130.676" y1="-138.05" x2="1356.03" y2="-396.119" gradientUnits="userSpaceOnUse">
<stop stop-color="#0A0F24"/>
<stop offset="0.591346" stop-color="#150A23"/>
<stop offset="1" stop-color="#1D0041"/>
</linearGradient>
<linearGradient id="paint1_linear_2074_2504" x1="-373.496" y1="62.063" x2="876.71" y2="2294.65" gradientUnits="userSpaceOnUse">
<stop stop-color="#10051D"/>
<stop offset="0.677885" stop-color="#060817"/>
<stop offset="1" stop-color="#040937"/>
</linearGradient>
<linearGradient id="paint2_linear_2074_2504" x1="-762.631" y1="-541.8" x2="1913.67" y2="2291.23" gradientUnits="userSpaceOnUse">
<stop stop-color="#3E2093" stop-opacity="0.85098"/>
<stop offset="0.313076" stop-color="#231254" stop-opacity="0.0352941"/>
<stop offset="1" stop-color="#3B0B6F"/>
</linearGradient>
<linearGradient id="paint3_linear_2074_2504" x1="-299.158" y1="523.651" x2="1750.6" y2="523.651" gradientUnits="userSpaceOnUse">
<stop stop-color="#8024D1" stop-opacity="0.5"/>
<stop offset="0.711538" stop-color="#160054" stop-opacity="0.2"/>
<stop offset="1" stop-color="#2C00A5" stop-opacity="0.35"/>
</linearGradient>
<linearGradient id="paint4_linear_2074_2504" x1="796.73" y1="327.398" x2="-720.739" y2="327.398" gradientUnits="userSpaceOnUse">
<stop stop-color="#8024D1" stop-opacity="0.5"/>
<stop offset="0.711538" stop-color="#160054" stop-opacity="0.2"/>
<stop offset="1" stop-color="#2C00A5" stop-opacity="0.35"/>
</linearGradient>
<linearGradient id="paint5_linear_2074_2504" x1="-302.448" y1="-308.33" x2="1249.41" y2="1303.26" gradientUnits="userSpaceOnUse">
<stop stop-color="#4F24C8" stop-opacity="0.85098"/>
<stop offset="0.52585" stop-color="#1F105B" stop-opacity="0"/>
<stop offset="1" stop-color="#003EE9"/>
</linearGradient>
<linearGradient id="paint6_linear_2074_2504" x1="1122.76" y1="1106.26" x2="376.554" y2="-682.838" gradientUnits="userSpaceOnUse">
<stop stop-color="#0F0584"/>
<stop offset="0.317165" stop-color="#231254" stop-opacity="0.21"/>
<stop offset="1" stop-color="#4613D3" stop-opacity="0.85098"/>
</linearGradient>
<linearGradient id="paint7_linear_2074_2504" x1="1297.21" y1="598.574" x2="-260.794" y2="-652.848" gradientUnits="userSpaceOnUse">
<stop stop-color="#3E2093" stop-opacity="0.85098"/>
<stop offset="0.439842" stop-color="#231254" stop-opacity="0.21"/>
<stop offset="0.530347" stop-color="#1F105B" stop-opacity="0.12"/>
<stop offset="1" stop-color="#130B6F"/>
</linearGradient>
<clipPath id="clip0_2074_2504">
<rect width="1481" height="753" fill="white"/>
</clipPath>
<clipPath id="clip1_2074_2504">
<rect width="894.602" height="2236.51" fill="white" transform="matrix(4.37114e-08 1 1 -4.37114e-08 -615 -135)"/>
</clipPath>
</defs>
</svg>
