<svg width="1481" height="753" viewBox="0 0 1481 753" fill="none" xmlns="http://www.w3.org/2000/svg">
<g clip-path="url(#clip0_2071_2215)">
<rect width="1481" height="753" fill="url(#paint0_linear_2071_2215)"/>
<g clip-path="url(#clip1_2071_2215)">
<rect width="894.602" height="2236.51" transform="matrix(4.37114e-08 1 1 -4.37114e-08 -28 -108)" fill="url(#paint1_linear_2071_2215)"/>
<g filter="url(#filter0_f_2071_2215)">
<path d="M2774.6 -1.33846C2794.72 4.44351 2912.89 -2.90251 2811.96 85.4106C2740.98 147.521 2428.86 199.256 2289.16 365.713C2148.74 533.018 2270.11 813.154 1992.11 984.517C1694.25 1168.12 927.831 1058.5 846.736 1031.61L486.233 912.066C468.301 908.299 451.961 904.657 437.413 901.575C414.178 896.652 395.542 893.166 382.234 892.861L382.15 892.859L49.4148 782.521L49.6073 781.431C111.507 783.295 179.828 785.105 252.511 786.258C119.331 778.917 25.7302 759.357 -13.8669 746.226L-388.707 663.411C-299.404 661.552 -190.776 657.144 -74.525 650.993C103.69 584.853 338.93 462.98 597.886 374.974C772.764 315.542 954.866 206.964 956.838 79.1451C958.81 -48.6739 833.216 -151.882 877.595 -285.712C905.988 -371.334 1177.65 -429.776 1283.15 -461.705L1523.12 -382.127L1470.73 -384.78C1321.33 -371.871 1082.57 -306.926 1025.17 -210.011C941.693 -69.0715 1112.14 118.212 1041.26 267.731C978.513 400.104 627.167 527.118 361.974 622.292C574.685 605.635 765.786 586.467 865.856 569.557C1130.52 524.834 1313.55 431.629 1329.3 329.79C1347.15 214.311 1226.98 45.6047 1275.29 -66.8476C1321.38 -174.124 1664.25 -331.312 1730.45 -309.36L1924.09 -245.148C1749.47 -211.605 1389.53 -119.966 1346.68 -21.762C1293.11 100.992 1419.3 197.708 1417.3 346.928C1415.1 510.804 1310.17 592.437 1103.09 662.946C856.248 746.993 630.865 779.837 446.974 787.392C757.942 785.752 1109.67 765.706 1374.94 689.711C1434.32 672.699 1516.68 652.559 1585.12 604.894C1653.51 557.259 1708.02 482.122 1711.64 355.04C1713.45 291.417 1714.26 237.382 1717.33 190.981C1720.4 144.58 1725.73 105.768 1736.62 72.5861C1747.51 39.3929 1763.96 11.8354 1789.24 -12.0573C1814.52 -35.9434 1848.6 -56.1454 1894.73 -74.6677C2042.33 -133.93 2202.96 -130.053 2235.69 -132.991L2235.8 -133.001L2235.91 -132.968L2573.87 -27.5864L2573.75 -26.4957C2495.64 -20.9359 2344.74 -15.8552 2201.99 2.67365C2130.62 11.9377 2061.31 24.5604 2004.18 42.2773C1947.02 60.0027 1902.17 82.7949 1879.59 112.323C1822.96 186.354 1822.92 272.451 1813.79 367.369C1804.67 462.253 1786.44 565.755 1693.25 674.194C1678.99 690.798 1656.9 707.14 1628.78 723.052C1600.66 738.967 1566.48 754.469 1527.99 769.383C1451.02 799.211 1356.81 826.699 1259.37 850.436C1068.34 896.972 864.865 929.096 754.587 936.138C1085.68 968.109 1537.41 987.069 1824.87 801.925C1992.21 694.144 1961.75 483.308 2168.98 268.318C2326.11 105.306 2619.64 66.3613 2743.43 49.938L2744.8 49.7571C2813.23 40.6763 2799.89 17.4611 2774.59 -1.34493L2726.67 -28.5217C2726.71 -28.5013 2754.44 -16.321 2774.59 -1.34493L2774.6 -1.33846Z" fill="url(#paint2_linear_2071_2215)" fill-opacity="0.9"/>
</g>
<g filter="url(#filter1_f_2071_2215)">
<path d="M2204.16 -232.656C2220.32 -232.528 2306.61 -262.466 2249.9 -175.928C2210.01 -115.065 1988.77 -11.9589 1919.43 140.686C1849.74 294.108 1997.97 477.154 1826.86 662.094C1643.54 860.242 1051.26 937.546 985.421 934.36L693.862 920.252C679.32 921.205 666.045 921.9 654.297 922.642C636.007 923.797 621.448 925.067 611.508 927.593L611.427 927.614L341.274 914.541L341.168 913.44C386.67 902.22 436.752 889.681 489.854 875.804C390.962 897.351 318.546 902.089 286.734 900.55L-8.98989 916.656C56.992 896.774 136.807 870.995 221.925 842.342C340.667 756.271 490.243 616.969 664.459 497.922C782.111 417.527 894.951 299.112 869.938 203.713C844.925 108.314 730.208 57.6309 735.465 -51.0205C738.829 -120.533 928.611 -220.24 1000.4 -265.823L1195.23 -256.396L1155.74 -247.514C1047.38 -206.972 883.402 -109.247 860.82 -25.3322C827.979 96.7014 993.443 200.576 971.744 326.376C952.534 437.749 717.739 604.923 540.373 730.589C695 674.146 833.048 620.315 903.913 587.018C1091.34 498.955 1208.05 391.773 1198.66 312.828C1188.01 223.309 1063.75 122.828 1076.36 29.2495C1088.38 -60.0223 1310.64 -247.867 1364.38 -245.267L1521.59 -237.66C1398.77 -176.559 1150.25 -33.8919 1138.75 47.9666C1124.37 150.29 1238.19 196.023 1267.61 307.334C1299.92 429.577 1238.85 511.98 1099.56 607.278C934.894 719.939 775.479 790.799 641.077 834.595C870.963 769.065 1126.57 681.621 1307.07 570.743C1347.69 545.795 1404.7 513.778 1445.67 464.198C1486.6 414.659 1511.53 347.57 1487.91 252.418C1476.08 204.763 1465.48 164.434 1458.15 129.313C1450.82 94.1891 1446.74 64.2283 1447.96 37.2974C1449.18 10.3543 1455.7 -13.5538 1469.55 -36.5676C1483.4 -59.5731 1504.55 -81.6589 1535.01 -104.986C1632.44 -179.617 1752.65 -210.021 1776.35 -218.979L1776.45 -219.018L1776.56 -219.015L2049.56 -210.71L2049.73 -209.625C1992.82 -189.31 1881.74 -154.278 1779.5 -110.939C1728.38 -89.2702 1679.49 -65.5346 1640.72 -40.5396C1601.92 -15.5289 1573.34 10.6822 1562.68 37.2661C1535.95 103.971 1553.74 167.917 1566.63 240.366C1579.5 312.781 1587.41 393.507 1540.6 493.435C1533.43 508.749 1520.38 525.482 1502.78 543.136C1485.17 560.795 1462.97 579.4 1437.46 598.458C1386.43 636.573 1322.11 676.523 1254.61 714.349C1122.68 788.284 978.583 854.136 897.936 882.36C1150.53 837.509 1489.66 757.981 1664.75 561.042C1766.79 446.278 1700.48 295.901 1809.95 93.1993C1892.95 -60.4949 2103.03 -150.245 2191.62 -188.093L2192.6 -188.51C2241.57 -209.435 2226.85 -223.923 2204.15 -232.658L2162.91 -242.928C2162.99 -242.916 2186.09 -239.608 2204.15 -232.658L2204.16 -232.656Z" fill="url(#paint3_linear_2071_2215)" fill-opacity="0.8"/>
</g>
<path d="M1625.34 126.833C1674.71 3.61923 1966.39 -161.585 2097.34 -208.336L1783.06 -217.896C1755.69 -207.549 1333.29 -245.878 1202.64 -192.428C1052.74 -131.109 952.541 84.9222 1081.2 270.928C1285.03 565.602 1038.04 761.338 938.729 807.849C732.627 904.37 441.667 798.957 94.4145 841.54L282.342 1093.15L441.667 1100.86C487.714 1089.16 618.731 1100.84 765.026 1050.99C947.895 988.682 1516.87 863.202 1590.67 636.197C1669.11 394.94 1563.62 280.85 1625.34 126.833Z" fill="url(#paint4_linear_2071_2215)" fill-opacity="0.8"/>
<path d="M-437.28 758.31C-431.218 769.138 -430.914 772.464 -427.975 769.322C-336.089 866.826 -189.777 707.989 -16.8173 707.989C116.393 707.989 599.899 590.013 829.7 354.621C1027.68 151.828 1078.7 -106.099 1038.81 -270.482C816.094 -300.861 588.836 -476.301 670.908 -225.752C829.7 259.01 325.197 465.432 44.1275 547.52C-376.132 670.258 -417.811 758.458 -427.975 769.322C-431.142 765.962 -434.244 762.297 -437.28 758.31Z" fill="url(#paint5_linear_2071_2215)"/>
<path d="M-706.779 876.845C-700.717 887.673 -700.413 890.998 -697.474 887.856C-605.588 985.36 -459.276 826.523 -286.316 826.523C-153.106 826.523 330.4 708.547 560.201 473.155C758.177 270.362 809.198 12.4352 769.314 -151.948C546.595 -182.327 319.337 -357.767 401.409 -107.218C560.201 377.545 55.6982 583.966 -225.372 666.054C-645.631 788.792 -687.31 876.992 -697.474 887.856C-700.641 884.496 -703.743 880.831 -706.779 876.845Z" fill="url(#paint6_linear_2071_2215)"/>
<path d="M556.846 923.37C565.193 938.283 565.611 942.863 569.659 938.536C696.176 1072.82 897.633 854.065 1135.78 854.065C1319.2 854.065 1984.93 691.585 2301.35 367.394C2573.94 88.1003 2644.19 -267.127 2589.27 -493.521C2282.61 -535.36 1969.7 -776.983 2082.71 -431.917C2301.35 235.715 1606.7 520.007 1219.69 633.061C641.041 802.101 583.654 923.573 569.659 938.536C565.298 933.908 561.027 928.86 556.846 923.37Z" fill="url(#paint7_linear_2071_2215)"/>
</g>
<path d="M-18.3645 508L579.815 508" stroke="url(#paint8_linear_2071_2215)" stroke-width="6.83634" stroke-linecap="round" stroke-linejoin="round" stroke-dasharray="0.85 42.73"/>
<path d="M-103.819 555L494.361 555" stroke="url(#paint9_linear_2071_2215)" stroke-width="6.83634" stroke-linecap="round" stroke-linejoin="round" stroke-dasharray="0.85 42.73"/>
<path d="M-60.2371 461L537.942 461" stroke="url(#paint10_linear_2071_2215)" stroke-width="6.83634" stroke-linecap="round" stroke-linejoin="round" stroke-dasharray="0.85 42.73"/>
<path d="M-232 602L366.179 602" stroke="url(#paint11_linear_2071_2215)" stroke-width="6.83634" stroke-linecap="round" stroke-linejoin="round" stroke-dasharray="0.85 42.73"/>
<path d="M451.316 630.311L90.9999 630.311" stroke="url(#paint12_linear_2071_2215)" stroke-width="4.1179" stroke-linecap="round" stroke-linejoin="round" stroke-dasharray="0.51 25.74"/>
<path d="M502.79 658.621L142.474 658.621" stroke="url(#paint13_linear_2071_2215)" stroke-width="4.1179" stroke-linecap="round" stroke-linejoin="round" stroke-dasharray="0.51 25.74"/>
<path d="M476.538 602L116.222 602" stroke="url(#paint14_linear_2071_2215)" stroke-width="4.1179" stroke-linecap="round" stroke-linejoin="round" stroke-dasharray="0.51 25.74"/>
<path d="M580 686.932L219.684 686.932" stroke="url(#paint15_linear_2071_2215)" stroke-width="4.1179" stroke-linecap="round" stroke-linejoin="round" stroke-dasharray="0.51 25.74"/>
<path d="M1607.55 142.002L933 142.002" stroke="url(#paint16_linear_2071_2215)" stroke-width="7.70909" stroke-linecap="round" stroke-linejoin="round" stroke-dasharray="0.96 48.18"/>
<path d="M1703.91 195.001L1029.36 195.001" stroke="url(#paint17_linear_2071_2215)" stroke-width="7.70909" stroke-linecap="round" stroke-linejoin="round" stroke-dasharray="0.96 48.18"/>
<path d="M1654.76 89L980.218 89" stroke="url(#paint18_linear_2071_2215)" stroke-width="7.70909" stroke-linecap="round" stroke-linejoin="round" stroke-dasharray="0.96 48.18"/>
<path d="M1848.45 248L1173.91 248" stroke="url(#paint19_linear_2071_2215)" stroke-width="7.70909" stroke-linecap="round" stroke-linejoin="round" stroke-dasharray="0.96 48.18"/>
<path d="M1246.56 274.528L1561.74 274.528" stroke="url(#paint20_linear_2071_2215)" stroke-width="3.602" stroke-linecap="round" stroke-linejoin="round" stroke-dasharray="0.45 22.51"/>
<path d="M1201.54 249.764L1516.71 249.764" stroke="url(#paint21_linear_2071_2215)" stroke-width="3.602" stroke-linecap="round" stroke-linejoin="round" stroke-dasharray="0.45 22.51"/>
<path d="M1224.5 299.292L1539.68 299.292" stroke="url(#paint22_linear_2071_2215)" stroke-width="3.602" stroke-linecap="round" stroke-linejoin="round" stroke-dasharray="0.45 22.51"/>
<path d="M1134 225L1449.18 225" stroke="url(#paint23_linear_2071_2215)" stroke-width="3.602" stroke-linecap="round" stroke-linejoin="round" stroke-dasharray="0.45 22.51"/>
<g filter="url(#filter2_f_2071_2215)">
<path d="M318 -23.1742C318 22.8371 242.708 120.931 173.504 120.931C104.3 120.931 -28 200.717 -28 154.706C-28 108.694 -21.2268 35.3684 110.287 22.9846C214.708 106.295 318 -69.1856 318 -23.1742Z" fill="#3C489D"/>
</g>
<g filter="url(#filter3_f_2071_2215)">
<path d="M1585.5 40.2359C1585.5 86.2472 1798.2 319.235 1729 319.235C1659.8 319.235 1048 526.953 1048 480.942C1048 434.93 1336.49 269.119 1468 256.735C1572.42 340.046 1585.5 -5.77545 1585.5 40.2359Z" fill="#000D68"/>
</g>
<g filter="url(#filter4_f_2071_2215)">
<path d="M1541.31 242.412C1674.46 415.922 1773.27 526.643 1693.13 630.167C1612.99 733.691 1397.35 781.352 1361.21 753.38C1325.08 725.409 1384.2 694.364 1464.34 590.84C1544.48 487.316 1505.18 214.441 1541.31 242.412Z" fill="#7D00E3" fill-opacity="0.6"/>
</g>
<g filter="url(#filter5_f_2071_2215)">
<path d="M636.013 222.335C754.128 344.803 838.678 425.336 803.369 470.948C768.06 516.56 633.317 506.802 604.553 484.535C575.789 462.268 609.632 454.626 644.941 409.014C680.25 363.402 607.249 200.068 636.013 222.335Z" fill="#7D00E3" fill-opacity="0.3"/>
</g>
<g filter="url(#filter6_f_2071_2215)">
<path d="M350.823 663.429C494.288 808.403 596.613 904.096 558.025 953.943C519.438 1003.79 362.57 985.686 328.027 958.945C293.484 932.205 332.357 925.314 370.945 875.467C409.533 825.619 316.28 636.688 350.823 663.429Z" fill="#DD53FF" fill-opacity="0.6"/>
</g>
<g filter="url(#filter7_f_2071_2215)">
<path d="M236.75 20.8804C339.938 125.155 413.536 193.982 385.782 229.835C358.027 265.688 245.199 252.666 220.354 233.433C195.509 214.2 223.468 209.243 251.223 173.39C278.977 137.537 211.905 1.64727 236.75 20.8804Z" fill="#5400D1" fill-opacity="0.6"/>
</g>
<g filter="url(#filter8_f_2071_2215)">
<path d="M1701.24 -86.5732C1701.24 -25.2696 1634.54 105.427 1573.24 105.427C1511.93 105.427 1394.74 211.73 1394.74 150.427C1394.74 89.1231 1400.74 -8.57352 1517.24 -25.0731C1609.74 85.9268 1701.24 -147.877 1701.24 -86.5732Z" fill="#3C489D"/>
</g>
</g>
<defs>
<filter id="filter0_f_2071_2215" x="-493.823" y="-566.821" width="3451.17" height="1760.55" filterUnits="userSpaceOnUse" color-interpolation-filters="sRGB">
<feFlood flood-opacity="0" result="BackgroundImageFix"/>
<feBlend mode="normal" in="SourceGraphic" in2="BackgroundImageFix" result="shape"/>
<feGaussianBlur stdDeviation="52.5579" result="effect1_foregroundBlur_2071_2215"/>
</filter>
<filter id="filter1_f_2071_2215" x="-13.463" y="-270.296" width="2286.9" height="1209.22" filterUnits="userSpaceOnUse" color-interpolation-filters="sRGB">
<feFlood flood-opacity="0" result="BackgroundImageFix"/>
<feBlend mode="normal" in="SourceGraphic" in2="BackgroundImageFix" result="shape"/>
<feGaussianBlur stdDeviation="2.23651" result="effect1_foregroundBlur_2071_2215"/>
</filter>
<filter id="filter2_f_2071_2215" x="-326.276" y="-329.276" width="942.551" height="796.551" filterUnits="userSpaceOnUse" color-interpolation-filters="sRGB">
<feFlood flood-opacity="0" result="BackgroundImageFix"/>
<feBlend mode="normal" in="SourceGraphic" in2="BackgroundImageFix" result="shape"/>
<feGaussianBlur stdDeviation="149.138" result="effect1_foregroundBlur_2071_2215"/>
</filter>
<filter id="filter3_f_2071_2215" x="749.724" y="-262.276" width="1291.4" height="1048.15" filterUnits="userSpaceOnUse" color-interpolation-filters="sRGB">
<feFlood flood-opacity="0" result="BackgroundImageFix"/>
<feBlend mode="normal" in="SourceGraphic" in2="BackgroundImageFix" result="shape"/>
<feGaussianBlur stdDeviation="149.138" result="effect1_foregroundBlur_2071_2215"/>
</filter>
<filter id="filter4_f_2071_2215" x="1052.09" y="-57.8636" width="968.135" height="1117.41" filterUnits="userSpaceOnUse" color-interpolation-filters="sRGB">
<feFlood flood-opacity="0" result="BackgroundImageFix"/>
<feBlend mode="normal" in="SourceGraphic" in2="BackgroundImageFix" result="shape"/>
<feGaussianBlur stdDeviation="149.138" result="effect1_foregroundBlur_2071_2215"/>
</filter>
<filter id="filter5_f_2071_2215" x="423.737" y="50.2607" width="557.734" height="622.955" filterUnits="userSpaceOnUse" color-interpolation-filters="sRGB">
<feFlood flood-opacity="0" result="BackgroundImageFix"/>
<feBlend mode="normal" in="SourceGraphic" in2="BackgroundImageFix" result="shape"/>
<feGaussianBlur stdDeviation="85" result="effect1_foregroundBlur_2071_2215"/>
</filter>
<filter id="filter6_f_2071_2215" x="16.3759" y="362.575" width="848.127" height="921.071" filterUnits="userSpaceOnUse" color-interpolation-filters="sRGB">
<feFlood flood-opacity="0" result="BackgroundImageFix"/>
<feBlend mode="normal" in="SourceGraphic" in2="BackgroundImageFix" result="shape"/>
<feGaussianBlur stdDeviation="149.138" result="effect1_foregroundBlur_2071_2215"/>
</filter>
<filter id="filter7_f_2071_2215" x="10.7334" y="-180.974" width="580.948" height="633.413" filterUnits="userSpaceOnUse" color-interpolation-filters="sRGB">
<feFlood flood-opacity="0" result="BackgroundImageFix"/>
<feBlend mode="normal" in="SourceGraphic" in2="BackgroundImageFix" result="shape"/>
<feGaussianBlur stdDeviation="100" result="effect1_foregroundBlur_2071_2215"/>
</filter>
<filter id="filter8_f_2071_2215" x="1190.74" y="-301" width="714.5" height="674.472" filterUnits="userSpaceOnUse" color-interpolation-filters="sRGB">
<feFlood flood-opacity="0" result="BackgroundImageFix"/>
<feBlend mode="normal" in="SourceGraphic" in2="BackgroundImageFix" result="shape"/>
<feGaussianBlur stdDeviation="102" result="effect1_foregroundBlur_2071_2215"/>
</filter>
<linearGradient id="paint0_linear_2071_2215" x1="-130.676" y1="-138.05" x2="1356.03" y2="-396.119" gradientUnits="userSpaceOnUse">
<stop stop-color="#0A0F24"/>
<stop offset="0.591346" stop-color="#150A23"/>
<stop offset="1" stop-color="#1D0041"/>
</linearGradient>
<linearGradient id="paint1_linear_2071_2215" x1="-86.1055" y1="1849.59" x2="1595.75" y2="655.296" gradientUnits="userSpaceOnUse">
<stop stop-color="#200441"/>
<stop offset="0.677885" stop-color="#060817"/>
<stop offset="1" stop-color="#020E7A"/>
</linearGradient>
<linearGradient id="paint2_linear_2071_2215" x1="2743.1" y1="-406.702" x2="-221.787" y2="2122.74" gradientUnits="userSpaceOnUse">
<stop stop-color="#3E2093" stop-opacity="0.85098"/>
<stop offset="0.313076" stop-color="#231254" stop-opacity="0.0352941"/>
<stop offset="1" stop-color="#3B0B6F"/>
</linearGradient>
<linearGradient id="paint3_linear_2071_2215" x1="1637.64" y1="-118.064" x2="1019.66" y2="922.633" gradientUnits="userSpaceOnUse">
<stop stop-color="#4B0EF4" stop-opacity="0.35"/>
<stop offset="0.439842" stop-color="#231254" stop-opacity="0.21"/>
<stop offset="1" stop-color="#130B6F"/>
</linearGradient>
<linearGradient id="paint4_linear_2071_2215" x1="1522.46" y1="-556.979" x2="969.213" y2="1352.93" gradientUnits="userSpaceOnUse">
<stop stop-color="#130B6F"/>
<stop offset="0.38815" stop-color="#1F105B" stop-opacity="0.12"/>
<stop offset="0.560158" stop-color="#231254" stop-opacity="0.21"/>
<stop offset="1" stop-color="#3E2093"/>
</linearGradient>
<linearGradient id="paint5_linear_2071_2215" x1="-437.28" y1="221.247" x2="1051.4" y2="221.246" gradientUnits="userSpaceOnUse">
<stop stop-color="#8024D1" stop-opacity="0.5"/>
<stop offset="0.711538" stop-color="#160054" stop-opacity="0.2"/>
<stop offset="1" stop-color="#2C00A5" stop-opacity="0.35"/>
</linearGradient>
<linearGradient id="paint6_linear_2071_2215" x1="-706.779" y1="339.781" x2="781.9" y2="339.781" gradientUnits="userSpaceOnUse">
<stop stop-color="#8024D1" stop-opacity="0.5"/>
<stop offset="0.711538" stop-color="#160054" stop-opacity="0.2"/>
<stop offset="1" stop-color="#2C00A5" stop-opacity="0.35"/>
</linearGradient>
<linearGradient id="paint7_linear_2071_2215" x1="556.846" y1="183.706" x2="2606.6" y2="183.706" gradientUnits="userSpaceOnUse">
<stop stop-color="#8024D1" stop-opacity="0.5"/>
<stop offset="0.711538" stop-color="#160054" stop-opacity="0.2"/>
<stop offset="1" stop-color="#2C00A5" stop-opacity="0.35"/>
</linearGradient>
<linearGradient id="paint8_linear_2071_2215" x1="-18.3645" y1="508.5" x2="579.815" y2="508.5" gradientUnits="userSpaceOnUse">
<stop stop-color="#EC6B15"/>
<stop offset="0.629808" stop-color="#2C00A5" stop-opacity="0.85098"/>
<stop offset="1" stop-color="#160054" stop-opacity="0.55"/>
</linearGradient>
<linearGradient id="paint9_linear_2071_2215" x1="-103.819" y1="555.5" x2="494.361" y2="555.5" gradientUnits="userSpaceOnUse">
<stop stop-color="#EC6B15"/>
<stop offset="0.629808" stop-color="#2C00A5" stop-opacity="0.85098"/>
<stop offset="1" stop-color="#160054" stop-opacity="0.55"/>
</linearGradient>
<linearGradient id="paint10_linear_2071_2215" x1="-60.2371" y1="461.5" x2="537.942" y2="461.5" gradientUnits="userSpaceOnUse">
<stop stop-color="#EC6B15"/>
<stop offset="0.629808" stop-color="#2C00A5" stop-opacity="0.85098"/>
<stop offset="1" stop-color="#160054" stop-opacity="0.55"/>
</linearGradient>
<linearGradient id="paint11_linear_2071_2215" x1="-232" y1="602.5" x2="366.179" y2="602.5" gradientUnits="userSpaceOnUse">
<stop stop-color="#EC6B15"/>
<stop offset="0.629808" stop-color="#2C00A5" stop-opacity="0.85098"/>
<stop offset="1" stop-color="#160054" stop-opacity="0.55"/>
</linearGradient>
<linearGradient id="paint12_linear_2071_2215" x1="451.316" y1="630.811" x2="90.9999" y2="630.811" gradientUnits="userSpaceOnUse">
<stop stop-color="#EC6B15"/>
<stop offset="0.629808" stop-color="#2C00A5" stop-opacity="0.85098"/>
<stop offset="1" stop-color="#160054" stop-opacity="0.55"/>
</linearGradient>
<linearGradient id="paint13_linear_2071_2215" x1="502.79" y1="659.121" x2="142.474" y2="659.121" gradientUnits="userSpaceOnUse">
<stop stop-color="#EC6B15"/>
<stop offset="0.629808" stop-color="#2C00A5" stop-opacity="0.85098"/>
<stop offset="1" stop-color="#160054" stop-opacity="0.55"/>
</linearGradient>
<linearGradient id="paint14_linear_2071_2215" x1="476.538" y1="602.5" x2="116.222" y2="602.5" gradientUnits="userSpaceOnUse">
<stop stop-color="#EC6B15"/>
<stop offset="0.629808" stop-color="#2C00A5" stop-opacity="0.85098"/>
<stop offset="1" stop-color="#160054" stop-opacity="0.55"/>
</linearGradient>
<linearGradient id="paint15_linear_2071_2215" x1="580" y1="687.432" x2="219.684" y2="687.432" gradientUnits="userSpaceOnUse">
<stop stop-color="#EC6B15"/>
<stop offset="0.629808" stop-color="#2C00A5" stop-opacity="0.85098"/>
<stop offset="1" stop-color="#160054" stop-opacity="0.55"/>
</linearGradient>
<linearGradient id="paint16_linear_2071_2215" x1="1607.55" y1="142.502" x2="933" y2="142.502" gradientUnits="userSpaceOnUse">
<stop stop-color="#EC6B15"/>
<stop offset="0.629808" stop-color="#2C00A5" stop-opacity="0.85098"/>
<stop offset="1" stop-color="#160054" stop-opacity="0.55"/>
</linearGradient>
<linearGradient id="paint17_linear_2071_2215" x1="1703.91" y1="195.501" x2="1029.36" y2="195.501" gradientUnits="userSpaceOnUse">
<stop stop-color="#EC6B15"/>
<stop offset="0.629808" stop-color="#2C00A5" stop-opacity="0.85098"/>
<stop offset="1" stop-color="#160054" stop-opacity="0.55"/>
</linearGradient>
<linearGradient id="paint18_linear_2071_2215" x1="1654.76" y1="89.5" x2="980.218" y2="89.5" gradientUnits="userSpaceOnUse">
<stop stop-color="#EC6B15"/>
<stop offset="0.629808" stop-color="#2C00A5" stop-opacity="0.85098"/>
<stop offset="1" stop-color="#160054" stop-opacity="0.55"/>
</linearGradient>
<linearGradient id="paint19_linear_2071_2215" x1="1848.45" y1="248.5" x2="1173.91" y2="248.5" gradientUnits="userSpaceOnUse">
<stop stop-color="#EC6B15"/>
<stop offset="0.629808" stop-color="#2C00A5" stop-opacity="0.85098"/>
<stop offset="1" stop-color="#160054" stop-opacity="0.55"/>
</linearGradient>
<linearGradient id="paint20_linear_2071_2215" x1="1246.56" y1="274.028" x2="1561.74" y2="274.028" gradientUnits="userSpaceOnUse">
<stop stop-color="#EC6B15"/>
<stop offset="0.629808" stop-color="#2C00A5" stop-opacity="0.85098"/>
<stop offset="1" stop-color="#160054" stop-opacity="0.55"/>
</linearGradient>
<linearGradient id="paint21_linear_2071_2215" x1="1201.54" y1="249.264" x2="1516.71" y2="249.264" gradientUnits="userSpaceOnUse">
<stop stop-color="#EC6B15"/>
<stop offset="0.629808" stop-color="#2C00A5" stop-opacity="0.85098"/>
<stop offset="1" stop-color="#160054" stop-opacity="0.55"/>
</linearGradient>
<linearGradient id="paint22_linear_2071_2215" x1="1224.5" y1="298.792" x2="1539.68" y2="298.792" gradientUnits="userSpaceOnUse">
<stop stop-color="#EC6B15"/>
<stop offset="0.629808" stop-color="#2C00A5" stop-opacity="0.85098"/>
<stop offset="1" stop-color="#160054" stop-opacity="0.55"/>
</linearGradient>
<linearGradient id="paint23_linear_2071_2215" x1="1134" y1="224.5" x2="1449.18" y2="224.5" gradientUnits="userSpaceOnUse">
<stop stop-color="#EC6B15"/>
<stop offset="0.629808" stop-color="#2C00A5" stop-opacity="0.85098"/>
<stop offset="1" stop-color="#160054" stop-opacity="0.55"/>
</linearGradient>
<clipPath id="clip0_2071_2215">
<rect width="1481" height="753" fill="white"/>
</clipPath>
<clipPath id="clip1_2071_2215">
<rect width="894.602" height="2236.51" fill="white" transform="matrix(4.37114e-08 1 1 -4.37114e-08 -28 -108)"/>
</clipPath>
</defs>
</svg>
