<svg width="1440" height="1253" viewBox="0 0 1440 1253" fill="none" xmlns="http://www.w3.org/2000/svg">
<g clip-path="url(#clip0_2103_1959)">
<path d="M1647.95 647.169C1648.79 630.626 1650.77 626.265 1645.68 627.387C1620.32 449.785 1486.69 571.904 1120.91 397.775C955.299 318.938 315.502 3.47459 -124.905 109.58C-504.32 200.99 -752.827 544.363 -826.804 765.265C-589.432 963.874 -453.079 1334.96 -365.133 982.67C-194.975 301.067 544.437 430.015 932.257 540.236C1517.29 706.506 1627.34 631.425 1645.68 627.387C1646.56 633.605 1647.32 640.19 1647.95 647.169Z" fill="url(#paint0_linear_2103_1959)" fill-opacity="0.6"/>
<path d="M1562.67 721.937C1559.71 708.969 1560.51 705.404 1556.18 706.108C1493.89 560.026 1434.74 597.457 1003.93 519.473C824.466 486.987 165.47 263.357 -229.032 344.975C-568.9 415.291 -744.666 623.627 -764.19 799.283C-492.682 959.278 -277.569 1256.13 -274.998 975.793C-270.025 433.404 463 541.263 857.272 631.796C1454.77 768.993 1540.23 708.697 1556.18 706.108C1558.33 711.161 1560.49 716.433 1562.67 721.937Z" fill="url(#paint1_linear_2103_1959)"/>
<path d="M-245.712 444.921C-125.88 410.327 -86.575 355.224 105.766 339.119C254.08 326.701 447.651 426.444 640.282 717.473C767.576 909.79 1321.22 991.475 1487 941C1602.87 905.722 1607.15 630.525 1632.83 551.137L1655.48 523.265L1645.71 530.298C1640.7 532.271 1636.54 539.657 1632.83 551.137L1528.5 679.5C1418.9 697.222 1278 698 1060.15 599.37C970.537 558.798 877.779 505.236 690.002 244.398C560.315 64.2505 355.666 51.3115 214.411 85.2263C91.2836 114.789 3.42229 266.44 -21.9292 273.255L-245.712 444.921Z" fill="url(#paint2_linear_2103_1959)" fill-opacity="0.8"/>
</g>
<defs>
<linearGradient id="paint0_linear_2103_1959" x1="1254.35" y1="1273.41" x2="-481.099" y2="182.664" gradientUnits="userSpaceOnUse">
<stop stop-color="#8024D1" stop-opacity="0.5"/>
<stop offset="0.711538" stop-color="#160054" stop-opacity="0.2"/>
<stop offset="1" stop-color="#2C00A5" stop-opacity="0.35"/>
</linearGradient>
<linearGradient id="paint1_linear_2103_1959" x1="1332.4" y1="1218.66" x2="-569.445" y2="337.038" gradientUnits="userSpaceOnUse">
<stop stop-color="#8024D1" stop-opacity="0.5"/>
<stop offset="0.711538" stop-color="#160054" stop-opacity="0.2"/>
<stop offset="1" stop-color="#2C00A5" stop-opacity="0.35"/>
</linearGradient>
<linearGradient id="paint2_linear_2103_1959" x1="-367.599" y1="781.166" x2="1627.98" y2="886.525" gradientUnits="userSpaceOnUse">
<stop stop-color="#3E2093" stop-opacity="0.85098"/>
<stop offset="0.439842" stop-color="#231254" stop-opacity="0.21"/>
<stop offset="0.530347" stop-color="#1F105B" stop-opacity="0.12"/>
<stop offset="1" stop-color="#130B6F"/>
</linearGradient>
<clipPath id="clip0_2103_1959">
<rect width="1440" height="1253" fill="white"/>
</clipPath>
</defs>
</svg>
