<svg width="1210" height="1377" viewBox="0 0 1210 1377" fill="none" xmlns="http://www.w3.org/2000/svg">
<g filter="url(#filter0_f_2002_492)">
<path d="M783.274 496.738C725.365 606.685 410.606 499.94 300.66 442.032C190.714 384.123 506.918 413.078 564.827 303.132C707.314 408.131 758.808 151.001 868.755 208.909C978.701 266.818 841.182 386.792 783.274 496.738Z" fill="#38165F" fill-opacity="0.7"/>
</g>
<g filter="url(#filter1_f_2002_492)">
<path d="M964 924.669C743.5 878.669 1027 1355.17 511.5 1101.17C387.236 1101.17 200 1132.93 200 1008.67C375 1035.17 500.736 833.669 625 833.669C785 651.669 1133 890.669 964 924.669Z" fill="#25165F" fill-opacity="0.7"/>
</g>
<defs>
<filter id="filter0_f_2002_492" x="77.6252" y="0.302246" width="1032.5" height="744.131" filterUnits="userSpaceOnUse" color-interpolation-filters="sRGB">
<feFlood flood-opacity="0" result="BackgroundImageFix"/>
<feBlend mode="normal" in="SourceGraphic" in2="BackgroundImageFix" result="shape"/>
<feGaussianBlur stdDeviation="100" result="effect1_foregroundBlur_2002_492"/>
</filter>
<filter id="filter1_f_2002_492" x="0" y="566" width="1209.18" height="810.157" filterUnits="userSpaceOnUse" color-interpolation-filters="sRGB">
<feFlood flood-opacity="0" result="BackgroundImageFix"/>
<feBlend mode="normal" in="SourceGraphic" in2="BackgroundImageFix" result="shape"/>
<feGaussianBlur stdDeviation="100" result="effect1_foregroundBlur_2002_492"/>
</filter>
</defs>
</svg>
