<svg width="1440" height="1253" viewBox="0 0 1440 1253" fill="none" xmlns="http://www.w3.org/2000/svg">
<g clip-path="url(#clip0_2111_3185)">
<path d="M1685.26 817.646C1686.12 800.862 1688.13 796.438 1682.96 797.576C1657.23 617.382 1521.66 741.283 1150.53 564.613C982.507 484.626 333.375 164.56 -113.458 272.213C-498.41 364.957 -750.544 713.341 -825.6 937.466C-584.763 1138.97 -446.421 1515.47 -357.192 1158.04C-184.551 466.494 565.65 597.324 959.129 709.153C1552.7 877.85 1664.35 801.673 1682.96 797.576C1683.86 803.885 1684.63 810.566 1685.26 817.646Z" fill="url(#paint0_linear_2111_3185)" fill-opacity="0.6"/>
<path d="M1958.62 1075.74C1965.85 1060.57 1969.4 1057.26 1964.19 1056.32C2009.58 880.054 1836.84 942.444 1561.92 636.886C1437.46 498.544 960.84 -46.1136 506.905 -118.168C115.835 -180.243 -250.684 44.7162 -405.999 222.881C-260.925 501.379 -277.65 902.14 -58.094 606.317C366.702 33.959 1009.27 442.652 1329.71 696.912C1813.11 1080.47 1945.44 1052.97 1964.19 1056.32C1962.6 1062.5 1960.75 1068.96 1958.62 1075.74Z" fill="url(#paint1_linear_2111_3185)" fill-opacity="0.6"/>
<path d="M1598.74 893.505C1595.74 880.347 1596.55 876.73 1592.15 877.445C1528.95 729.231 1468.94 767.208 1031.85 688.087C849.765 655.127 181.153 428.233 -219.105 511.043C-563.932 582.384 -742.263 793.761 -762.071 971.979C-486.602 1134.31 -268.35 1435.49 -265.742 1151.06C-260.696 600.762 483.025 710.195 883.05 802.049C1489.26 941.248 1575.97 880.071 1592.15 877.445C1594.34 882.571 1596.53 887.92 1598.74 893.505Z" fill="url(#paint2_linear_2111_3185)"/>
<path d="M-235.562 612.181C-113.982 577.082 -74.1028 521.175 121.044 504.835C271.523 492.236 467.919 593.435 663.36 888.71C792.512 1083.83 1354.23 1166.71 1522.43 1115.5C1639.99 1079.71 1644.34 800.494 1670.39 719.947L1693.37 691.669L1683.46 698.804C1678.38 700.805 1674.16 708.299 1670.39 719.947L1564.54 850.183C1453.34 868.163 1310.38 868.953 1089.36 768.884C998.435 727.719 904.322 673.376 713.806 408.732C582.226 225.956 374.591 212.828 231.275 247.238C106.351 277.231 17.2077 431.096 -8.51377 438.01L-235.562 612.181Z" fill="url(#paint3_linear_2111_3185)" fill-opacity="0.8"/>
<path d="M-271.028 640.684C-129.639 568.56 -93.8153 490.228 142.633 423.72C324.96 372.435 590.884 450.384 901.765 767.575C1107.2 977.179 1818.68 945.728 2013.66 842.678C2149.93 770.654 2088.92 425.759 2101.85 320.371L2123.44 280.081L2112.93 291.225C2107.14 294.898 2103.72 305.13 2101.85 320.371L2002.45 505.922C1869.77 554.498 1693.91 589.449 1397.92 518.746C1276.16 489.662 1147.34 445.106 849.804 164.469C644.312 -29.3527 385.48 3.83351 217.158 80.2759C70.4379 146.908 -2.77352 357.588 -32.8073 372.216L-271.028 640.684Z" fill="url(#paint4_linear_2111_3185)" fill-opacity="0.8"/>
</g>
<defs>
<linearGradient id="paint0_linear_2111_3185" x1="1285.92" y1="1453.03" x2="-474.85" y2="346.363" gradientUnits="userSpaceOnUse">
<stop stop-color="#8024D1" stop-opacity="0.1"/>
<stop offset="0.711538" stop-color="#160054" stop-opacity="0.2"/>
<stop offset="1" stop-color="#2C00A5" stop-opacity="0.35"/>
</linearGradient>
<linearGradient id="paint1_linear_2111_3185" x1="1346.03" y1="1509.24" x2="144.726" y2="-188.373" gradientUnits="userSpaceOnUse">
<stop stop-color="#4B05D9" stop-opacity="0.5"/>
<stop offset="0.711538" stop-color="#160054" stop-opacity="0.2"/>
<stop offset="1" stop-color="#5800A5" stop-opacity="0.75"/>
</linearGradient>
<linearGradient id="paint2_linear_2111_3185" x1="1365.12" y1="1397.47" x2="-564.485" y2="502.989" gradientUnits="userSpaceOnUse">
<stop stop-color="#5407A1" stop-opacity="0.1"/>
<stop offset="0.711538" stop-color="#160054" stop-opacity="0.2"/>
<stop offset="1" stop-color="#2C00A5" stop-opacity="0.15"/>
</linearGradient>
<linearGradient id="paint3_linear_2111_3185" x1="-359.227" y1="953.333" x2="1665.47" y2="1060.23" gradientUnits="userSpaceOnUse">
<stop stop-color="#3E2093" stop-opacity="0.75"/>
<stop offset="0.439842" stop-color="#231254" stop-opacity="0.21"/>
<stop offset="0.530347" stop-color="#1F105B" stop-opacity="0.12"/>
<stop offset="1" stop-color="#130B6F" stop-opacity="0.7"/>
</linearGradient>
<linearGradient id="paint4_linear_2111_3185" x1="-342.238" y1="1090.22" x2="2176.68" y2="740.612" gradientUnits="userSpaceOnUse">
<stop stop-color="#522093" stop-opacity="0.75"/>
<stop offset="0.530347" stop-color="#1F105B" stop-opacity="0.12"/>
<stop offset="1" stop-color="#250383" stop-opacity="0.7"/>
</linearGradient>
<clipPath id="clip0_2111_3185">
<rect width="1440" height="1253" fill="white"/>
</clipPath>
</defs>
</svg>
