<svg width="600" height="120" viewBox="0 0 600 120" fill="none" xmlns="http://www.w3.org/2000/svg">
<path d="M100.065 22.788L33.9355 22.788L33.9355 71.636L67.0001 100.15" stroke="white" stroke-width="9.21659"/>
<path d="M49.8342 66.5668L49.8342 38.053L95.1683 38.053L95.1683 66.5668L72.7605 87.477" stroke="#F25835" stroke-width="8.75576"/>
<path d="M52.6567 54.7005L94.0162 54.7005" stroke="#F25835" stroke-width="8.75576"/>
<path d="M164.242 86.75C159.492 86.75 155.492 85.775 152.242 83.825C148.992 81.825 146.492 78.85 144.742 74.9C143.042 70.95 142.192 66.025 142.192 60.125C142.192 54.175 143.042 49.25 144.742 45.35C146.492 41.4 148.992 38.45 152.242 36.5C155.492 34.5 159.492 33.5 164.242 33.5C170.242 33.5 175.042 35.1 178.642 38.3C182.292 41.5 184.517 46.25 185.317 52.55L176.617 52.55L176.617 50.9C176.617 49 176.192 47.275 175.342 45.725C174.492 44.125 173.167 42.85 171.367 41.9C169.567 40.9 167.192 40.4 164.242 40.4C159.792 40.4 156.492 41.675 154.342 44.225C152.242 46.725 151.192 50.675 151.192 56.075L151.192 64.175C151.192 69.525 152.242 73.475 154.342 76.025C156.492 78.575 159.792 79.85 164.242 79.85C167.192 79.85 169.567 79.35 171.367 78.35C173.167 77.35 174.492 76.025 175.342 74.375C176.192 72.725 176.617 70.925 176.617 68.975L176.617 67.1L185.392 67.1C184.642 73.6 182.442 78.5 178.792 81.8C175.192 85.1 170.342 86.75 164.242 86.75ZM195.063 95.9L195.063 89.75L206.763 89.75L208.563 84.125L201.513 84.125L190.488 45.95L199.188 45.95L208.188 78.05L210.363 78.05L219.438 45.95L227.688 45.95L214.788 90.5C214.338 92.25 213.638 93.575 212.688 94.475C211.788 95.425 210.463 95.9 208.713 95.9L195.063 95.9ZM255.221 86.75C252.321 86.75 249.921 86.05 248.021 84.65C246.121 83.25 244.671 81.15 243.671 78.35L241.571 78.35L241.571 86L234.521 86L234.521 40.4L229.721 40.4L229.721 34.25L242.771 34.25L242.771 43.55C242.771 44.7 242.696 45.975 242.546 47.375C242.446 48.775 242.271 50.65 242.021 53L244.121 53C245.071 50.4 246.446 48.45 248.246 47.15C250.046 45.85 252.371 45.2 255.221 45.2C258.371 45.2 261.096 46.025 263.396 47.675C265.696 49.275 267.471 51.625 268.721 54.725C269.971 57.825 270.596 61.575 270.596 65.975C270.596 70.325 269.971 74.075 268.721 77.225C267.471 80.325 265.696 82.7 263.396 84.35C261.096 85.95 258.371 86.75 255.221 86.75ZM252.296 80.075C255.546 80.075 257.946 79.15 259.496 77.3C261.096 75.4 261.896 72.425 261.896 68.375L261.896 63.575C261.896 59.525 261.096 56.575 259.496 54.725C257.946 52.825 255.546 51.875 252.296 51.875C249.046 51.875 246.646 52.825 245.096 54.725C243.546 56.575 242.771 59.525 242.771 63.575L242.771 68.375C242.771 72.425 243.546 75.4 245.096 77.3C246.646 79.15 249.046 80.075 252.296 80.075ZM295.474 86.75C291.574 86.75 288.249 85.95 285.499 84.35C282.749 82.75 280.649 80.4 279.199 77.3C277.749 74.2 277.024 70.425 277.024 65.975C277.024 61.475 277.749 57.7 279.199 54.65C280.649 51.55 282.749 49.2 285.499 47.6C288.249 46 291.574 45.2 295.474 45.2C299.274 45.2 302.499 45.95 305.149 47.45C307.849 48.9 309.899 51.05 311.299 53.9C312.699 56.75 313.399 60.275 313.399 64.475L313.399 67.4L282.424 67.4L282.424 62L310.324 62L305.224 65.45L305.224 63.425C305.224 59.375 304.424 56.4 302.824 54.5C301.274 52.6 298.824 51.65 295.474 51.65C292.174 51.65 289.724 52.6 288.124 54.5C286.574 56.4 285.799 59.375 285.799 63.425L285.799 68.3C285.799 72.4 286.574 75.4 288.124 77.3C289.724 79.15 292.174 80.075 295.474 80.075C297.724 80.075 299.474 79.75 300.724 79.1C301.974 78.4 302.874 77.575 303.424 76.625C303.974 75.625 304.249 74.7 304.249 73.85L304.249 73.4L312.799 73.4C311.899 77.75 309.974 81.075 307.024 83.375C304.074 85.625 300.224 86.75 295.474 86.75ZM322.874 86L322.874 52.1L318.074 52.1L318.074 45.95L329.924 45.95L329.924 53.375L332.099 53.375C332.999 50.675 334.274 48.7 335.924 47.45C337.624 46.15 339.874 45.5 342.674 45.5L347.849 45.5L347.849 52.1L339.299 52.1C336.499 52.1 334.449 52.875 333.149 54.425C331.849 55.975 331.199 58.4 331.199 61.7L331.199 86L322.874 86Z" fill="white"/>
<path d="M351.567 86L369.042 34.25L382.167 34.25L399.717 86L388.917 86L376.092 45.125L374.667 45.125L361.917 86L351.567 86ZM361.017 74.675L361.242 66.575L389.142 66.575L389.367 74.675L361.017 74.675ZM405.643 86L405.643 45.95L415.168 45.95L415.168 53.15L416.593 53.15C417.543 50.6 418.893 48.675 420.643 47.375C422.443 46.075 424.768 45.425 427.618 45.425L433.693 45.425L433.693 53.9L423.193 53.9C420.743 53.9 418.918 54.575 417.718 55.925C416.568 57.275 415.993 59.425 415.993 62.375L415.993 86L405.643 86ZM464.056 61.325C464.056 55.875 461.856 53.15 457.456 53.15C453.056 53.15 450.856 55.875 450.856 61.325L450.856 86L440.506 86L440.506 45.95L450.031 45.95L450.031 53.075L451.456 53.075C452.306 50.525 453.631 48.575 455.431 47.225C457.231 45.875 459.556 45.2 462.406 45.2C465.256 45.2 467.581 45.9 469.381 47.3C471.181 48.65 472.431 50.575 473.131 53.075L474.931 53.075C475.781 50.525 477.106 48.575 478.906 47.225C480.706 45.875 483.056 45.2 485.956 45.2C489.906 45.2 492.906 46.45 494.956 48.95C497.006 51.45 498.031 55.1 498.031 59.9L498.031 86L487.606 86L487.606 61.325C487.606 55.875 485.406 53.15 481.006 53.15C476.656 53.15 474.481 55.875 474.481 61.325L474.481 86L464.056 86L464.056 61.325ZM525.296 86.75C519.046 86.75 514.146 84.95 510.596 81.35C507.096 77.75 505.346 72.625 505.346 65.975C505.346 59.325 507.096 54.2 510.596 50.6C514.146 47 519.046 45.2 525.296 45.2C531.546 45.2 536.421 47 539.921 50.6C543.421 54.2 545.171 59.325 545.171 65.975C545.171 72.625 543.421 77.75 539.921 81.35C536.421 84.95 531.546 86.75 525.296 86.75ZM525.296 78.8C528.396 78.8 530.646 77.95 532.046 76.25C533.496 74.5 534.221 71.8 534.221 68.15L534.221 63.8C534.221 60.15 533.496 57.475 532.046 55.775C530.646 54.025 528.396 53.15 525.296 53.15C522.246 53.15 519.971 54.025 518.471 55.775C517.021 57.475 516.296 60.15 516.296 63.8L516.296 68.15C516.296 71.8 517.021 74.5 518.471 76.25C519.971 77.95 522.246 78.8 525.296 78.8ZM553.079 86L553.079 45.95L562.604 45.95L562.604 53.15L564.029 53.15C564.979 50.6 566.329 48.675 568.079 47.375C569.879 46.075 572.204 45.425 575.054 45.425L581.129 45.425L581.129 53.9L570.629 53.9C568.179 53.9 566.354 54.575 565.154 55.925C564.004 57.275 563.429 59.425 563.429 62.375L563.429 86L553.079 86Z" fill="#F25835"/>
</svg>
