<svg width="577" height="365" viewBox="0 0 577 365" fill="none" xmlns="http://www.w3.org/2000/svg">
<path d="M354.629 47.2427L222.371 47.2427L222.371 144.939L288.5 201.966" stroke="#FFFEFD" stroke-width="18.4332"/>
<path d="M254.168 134.8L254.168 77.7726L344.836 77.7726L344.836 134.8L300.021 176.621" stroke="#F25835" stroke-width="17.5115"/>
<path d="M259.813 111.068L342.532 111.068" stroke="#F25835" stroke-width="17.5115"/>
<path d="M91.575 325.083C86.825 325.083 82.825 324.108 79.575 322.158C76.325 320.158 73.825 317.183 72.075 313.233C70.375 309.283 69.525 304.358 69.525 298.458C69.525 292.508 70.375 287.583 72.075 283.683C73.825 279.733 76.325 276.783 79.575 274.833C82.825 272.833 86.825 271.833 91.575 271.833C97.575 271.833 102.375 273.433 105.975 276.633C109.625 279.833 111.85 284.583 112.65 290.883L103.95 290.883L103.95 289.233C103.95 287.333 103.525 285.608 102.675 284.058C101.825 282.458 100.5 281.183 98.7 280.233C96.9 279.233 94.525 278.733 91.575 278.733C87.125 278.733 83.825 280.008 81.675 282.558C79.575 285.058 78.525 289.008 78.525 294.408L78.525 302.508C78.525 307.858 79.575 311.808 81.675 314.358C83.825 316.908 87.125 318.183 91.575 318.183C94.525 318.183 96.9 317.683 98.7 316.683C100.5 315.683 101.825 314.358 102.675 312.708C103.525 311.058 103.95 309.258 103.95 307.308L103.95 305.433L112.725 305.433C111.975 311.933 109.775 316.833 106.125 320.133C102.525 323.433 97.675 325.083 91.575 325.083ZM122.396 334.233L122.396 328.083L134.096 328.083L135.896 322.458L128.846 322.458L117.821 284.283L126.521 284.283L135.521 316.383L137.696 316.383L146.771 284.283L155.021 284.283L142.121 328.833C141.671 330.583 140.971 331.908 140.021 332.808C139.121 333.758 137.796 334.233 136.046 334.233L122.396 334.233ZM182.554 325.083C179.654 325.083 177.254 324.383 175.354 322.983C173.454 321.583 172.004 319.483 171.004 316.683L168.904 316.683L168.904 324.333L161.854 324.333L161.854 278.733L157.054 278.733L157.054 272.583L170.104 272.583L170.104 281.883C170.104 283.033 170.029 284.308 169.879 285.708C169.779 287.108 169.604 288.983 169.354 291.333L171.454 291.333C172.404 288.733 173.779 286.783 175.579 285.483C177.379 284.183 179.704 283.533 182.554 283.533C185.704 283.533 188.429 284.358 190.729 286.008C193.029 287.608 194.804 289.958 196.054 293.058C197.304 296.158 197.929 299.908 197.929 304.308C197.929 308.658 197.304 312.408 196.054 315.558C194.804 318.658 193.029 321.033 190.729 322.683C188.429 324.283 185.704 325.083 182.554 325.083ZM179.629 318.408C182.879 318.408 185.279 317.483 186.829 315.633C188.429 313.733 189.229 310.758 189.229 306.708L189.229 301.908C189.229 297.858 188.429 294.908 186.829 293.058C185.279 291.158 182.879 290.208 179.629 290.208C176.379 290.208 173.979 291.158 172.429 293.058C170.879 294.908 170.104 297.858 170.104 301.908L170.104 306.708C170.104 310.758 170.879 313.733 172.429 315.633C173.979 317.483 176.379 318.408 179.629 318.408ZM222.807 325.083C218.907 325.083 215.582 324.283 212.832 322.683C210.082 321.083 207.982 318.733 206.532 315.633C205.082 312.533 204.357 308.758 204.357 304.308C204.357 299.808 205.082 296.033 206.532 292.983C207.982 289.883 210.082 287.533 212.832 285.933C215.582 284.333 218.907 283.533 222.807 283.533C226.607 283.533 229.832 284.283 232.482 285.783C235.182 287.233 237.232 289.383 238.632 292.233C240.032 295.083 240.732 298.608 240.732 302.808L240.732 305.733L209.757 305.733L209.757 300.333L237.657 300.333L232.557 303.783L232.557 301.758C232.557 297.708 231.757 294.733 230.157 292.833C228.607 290.933 226.157 289.983 222.807 289.983C219.507 289.983 217.057 290.933 215.457 292.833C213.907 294.733 213.132 297.708 213.132 301.758L213.132 306.633C213.132 310.733 213.907 313.733 215.457 315.633C217.057 317.483 219.507 318.408 222.807 318.408C225.057 318.408 226.807 318.083 228.057 317.433C229.307 316.733 230.207 315.908 230.757 314.958C231.307 313.958 231.582 313.033 231.582 312.183L231.582 311.733L240.132 311.733C239.232 316.083 237.307 319.408 234.357 321.708C231.407 323.958 227.557 325.083 222.807 325.083ZM250.207 324.333L250.207 290.433L245.407 290.433L245.407 284.283L257.257 284.283L257.257 291.708L259.432 291.708C260.332 289.008 261.607 287.033 263.257 285.783C264.957 284.483 267.207 283.833 270.007 283.833L275.182 283.833L275.182 290.433L266.632 290.433C263.832 290.433 261.782 291.208 260.482 292.758C259.182 294.308 258.532 296.733 258.532 300.033L258.532 324.333L250.207 324.333Z" fill="white"/>
<path d="M278.9 324.333L296.375 272.583L309.5 272.583L327.05 324.333L316.25 324.333L303.425 283.458L302 283.458L289.25 324.333L278.9 324.333ZM288.35 313.008L288.575 304.908L316.475 304.908L316.7 313.008L288.35 313.008ZM332.976 324.333L332.976 284.283L342.501 284.283L342.501 291.483L343.926 291.483C344.876 288.933 346.226 287.008 347.976 285.708C349.776 284.408 352.101 283.758 354.951 283.758L361.026 283.758L361.026 292.233L350.526 292.233C348.076 292.233 346.251 292.908 345.051 294.258C343.901 295.608 343.326 297.758 343.326 300.708L343.326 324.333L332.976 324.333ZM391.389 299.658C391.389 294.208 389.189 291.483 384.789 291.483C380.389 291.483 378.189 294.208 378.189 299.658L378.189 324.333L367.839 324.333L367.839 284.283L377.364 284.283L377.364 291.408L378.789 291.408C379.639 288.858 380.964 286.908 382.764 285.558C384.564 284.208 386.889 283.533 389.739 283.533C392.589 283.533 394.914 284.233 396.714 285.633C398.514 286.983 399.764 288.908 400.464 291.408L402.264 291.408C403.114 288.858 404.439 286.908 406.239 285.558C408.039 284.208 410.389 283.533 413.289 283.533C417.239 283.533 420.239 284.783 422.289 287.283C424.339 289.783 425.364 293.433 425.364 298.233L425.364 324.333L414.939 324.333L414.939 299.658C414.939 294.208 412.739 291.483 408.339 291.483C403.989 291.483 401.814 294.208 401.814 299.658L401.814 324.333L391.389 324.333L391.389 299.658ZM452.629 325.083C446.379 325.083 441.479 323.283 437.929 319.683C434.429 316.083 432.679 310.958 432.679 304.308C432.679 297.658 434.429 292.533 437.929 288.933C441.479 285.333 446.379 283.533 452.629 283.533C458.879 283.533 463.754 285.333 467.254 288.933C470.754 292.533 472.504 297.658 472.504 304.308C472.504 310.958 470.754 316.083 467.254 319.683C463.754 323.283 458.879 325.083 452.629 325.083ZM452.629 317.133C455.729 317.133 457.979 316.283 459.379 314.583C460.829 312.833 461.554 310.133 461.554 306.483L461.554 302.133C461.554 298.483 460.829 295.808 459.379 294.108C457.979 292.358 455.729 291.483 452.629 291.483C449.579 291.483 447.304 292.358 445.804 294.108C444.354 295.808 443.629 298.483 443.629 302.133L443.629 306.483C443.629 310.133 444.354 312.833 445.804 314.583C447.304 316.283 449.579 317.133 452.629 317.133ZM480.413 324.333L480.413 284.283L489.938 284.283L489.938 291.483L491.363 291.483C492.313 288.933 493.663 287.008 495.413 285.708C497.213 284.408 499.538 283.758 502.388 283.758L508.463 283.758L508.463 292.233L497.963 292.233C495.513 292.233 493.688 292.908 492.488 294.258C491.338 295.608 490.763 297.758 490.763 300.708L490.763 324.333L480.413 324.333Z" fill="#F25835"/>
</svg>
